
<svg xmlns="http://www.w3.org/2000/svg" version="1.1" xmlns:xlink="http://www.w3.org/1999/xlink" preserveAspectRatio="none" x="0px" y="0px" width="400px" height="200px" viewBox="0 0 400 200">
<defs>
<g id="Layer0_0_FILL">
<path fill="#FFFF00" fill-opacity="0.6" stroke="none" d="
M 67.2 54.8
L 13.5 54.8 13.5 133.7 27.75 133.7 27.75 67.9 52.9 67.9 52.9 133.7 67.2 133.7 67.2 54.8
M 93.65 55.95
Q 88 58.3 83.85 63.35 79.65 68.35 77.3 76.15 74.85 83.95 74.85 94.65 74.85 114.4 82.35 124.75 89.85 135.1 104.7 135.1 111.1 135.1 116.75 132.65 122.3 130.3 126.55 125.25 130.7 120.25 133.1 112.45 135.45 104.65 135.45 93.95 135.45 74.15 128 63.85 120.45 53.5 105.6 53.5 99.25 53.5 93.65 55.95
M 93.45 73.9
Q 95.3 70.45 98.15 68.7 101.1 66.9 105.15 66.9 113.35 66.9 116.95 73.75 120.45 80.65 120.45 94.65 120.45 101.15 119.6 106.2 118.75 111.25 116.95 114.7 115.1 118.15 112.15 119.95 109.25 121.65 105.15 121.65 97.05 121.65 93.45 114.85 89.85 107.95 89.85 93.95 89.85 87.4 90.7 82.4 91.55 77.35 93.45 73.9
M 190.95 93.1
Q 187.35 90 181.95 88.25 176.45 86.5 169.15 86.5
L 159 86.5 159 66.6 192.7 66.6 192.7 54.8 144.95 54.8 144.95 133.7 167.95 133.7
Q 182.65 133.7 190.3 127.55 198 121.35 198 109.2 198 104.45 196.25 100.25 194.45 96.1 190.95 93.1
M 167.85 98.1
Q 171.85 98.1 174.65 98.95 177.4 99.7 179.25 101.25 181.05 102.75 181.9 104.85 182.7 106.95 182.7 109.5 182.7 112 181.8 114.2 180.9 116.45 179.2 118.15 177.45 119.8 174.95 120.85 172.35 121.8 168.9 121.8
L 159 121.8 159 98.1 167.85 98.1
M 258.3 67.4
L 258.3 54.8 212.95 54.8 212.95 133.7 258.3 133.7 258.3 121.15 227.35 121.15 227.35 99.25 256.85 99.25 256.85 87 227.35 87 227.35 67.4 258.3 67.4
M 331.45 120.85
L 325.7 120.85 325.7 54.8 284.5 54.8
Q 284.05 70.05 283.35 80.85 282.6 91.6 281.55 98.95 280.55 106.2 279.2 110.6 277.85 114.9 276.2 117.2 274.55 119.55 272.45 120.2 270.35 120.85 267.85 120.85
L 267.15 120.85 268.05 150.8 281.3 150.8 281.3 133.7 317.25 133.7 317.25 150.8 330.5 150.8 331.45 120.85
M 295.5 97.6
Q 296.05 92.15 296.6 84.8 297.15 77.5 297.55 67.65
L 311.4 67.65 311.4 120.85 288 120.85
Q 289.4 119.55 290.5 117.85 291.6 116.05 292.55 113.45 293.45 110.7 294.2 106.9 294.9 103.05 295.5 97.6
M 374.35 54.8
L 354.5 54.8 332.2 133.7 346.25 133.7 350.55 118.15 376.8 118.15 380.95 133.7 396.65 133.7 374.35 54.8
M 373.65 106
L 353.9 106 363.85 69.3 373.65 106 Z"/>
</g>
</defs>

<g transform="matrix( 1, 0, 0, 1, 0,0) ">
<use xlink:href="#Layer0_0_FILL"/>
</g>
</svg>
